<svg width="68" height="102" viewBox="0 0 68 102" fill="none" xmlns="http://www.w3.org/2000/svg">
<path d="M51 68C60.3888 68 68 60.3888 68 51C68 41.6112 60.3888 34 51 34C41.6112 34 34 41.6112 34 51C34 60.3888 41.6112 68 51 68Z" fill="#19BCFE"/>
<path fill-rule="evenodd" clip-rule="evenodd" d="M17 102C21.5087 102 25.8327 100.209 29.0208 97.0208C32.2089 93.8327 34 89.5087 34 85V68H17C12.4913 68 8.1673 69.7911 4.97919 72.9792C1.79107 76.1673 0 80.4913 0 85C0 89.5087 1.79107 93.8327 4.97919 97.0208C8.1673 100.209 12.4913 102 17 102Z" fill="#09CF83"/>
<path fill-rule="evenodd" clip-rule="evenodd" d="M17 68H34V34H17C12.4913 34 8.1673 35.7911 4.97919 38.9792C1.79107 42.1673 0 46.4913 0 51C0 55.5087 1.79107 59.8327 4.97919 63.0208C8.1673 66.2089 12.4913 68 17 68Z" fill="#A259FF"/>
<path fill-rule="evenodd" clip-rule="evenodd" d="M17 34H34V0H17C12.4913 0 8.1673 1.79107 4.97919 4.97919C1.79107 8.1673 0 12.4913 0 17C0 21.5087 1.79107 25.8327 4.97919 29.0208C8.1673 32.2089 12.4913 34 17 34Z" fill="#F24E1E"/>
<path fill-rule="evenodd" clip-rule="evenodd" d="M51 34H34V0H51C55.5087 0 59.8327 1.79107 63.0208 4.97919C66.2089 8.1673 68 12.4913 68 17C68 21.5087 66.2089 25.8327 63.0208 29.0208C59.8327 32.2089 55.5087 34 51 34Z" fill="#FF7262"/>
</svg>
