<svg width="80" height="83" viewBox="0 0 80 83" fill="none" xmlns="http://www.w3.org/2000/svg">
<path d="M79.955 18.7768C79.9847 18.8874 80 19.0014 80 19.116V36.9317C80 37.3971 79.7531 37.827 79.3522 38.0585L64.5156 46.6681V63.7316C64.5157 63.9599 64.4562 64.1843 64.3431 64.3821C64.23 64.5799 64.0673 64.7443 63.8713 64.8588L32.9 82.8271C32.8291 82.8675 32.7519 82.8933 32.6744 82.9213C32.6453 82.9307 32.6181 82.9487 32.5875 82.9569C32.371 83.0144 32.1434 83.0144 31.9269 82.9569C31.8913 82.9474 31.8591 82.9276 31.8253 82.9147C31.7544 82.8885 31.6803 82.8659 31.6128 82.8271L0.647812 64.8585C0.451044 64.7446 0.287544 64.5805 0.173806 64.3827C0.0600689 64.1848 0.000117301 63.9603 0 63.7316L0 10.2848C0 10.1676 0.01625 10.0539 0.045 9.94368C0.0546875 9.9062 0.0771875 9.87219 0.0903125 9.83471C0.114375 9.76668 0.137187 9.69677 0.1725 9.63346C0.196562 9.59126 0.231875 9.55725 0.260937 9.5182C0.298125 9.46623 0.331875 9.41269 0.375313 9.36702C0.4125 9.32986 0.460938 9.30215 0.502813 9.26971C0.549688 9.23065 0.59125 9.18845 0.644375 9.15759H0.645937L16.1291 0.173565C16.3251 0.0598498 16.5474 0 16.7736 0C16.9998 0 17.2221 0.0598498 17.4181 0.173565L32.9012 9.15759H32.9044C32.9559 9.19034 32.9997 9.23065 33.0462 9.26813C33.0881 9.30057 33.135 9.32986 33.1719 9.36576C33.2172 9.41269 33.2494 9.46655 33.2878 9.5182C33.3153 9.55725 33.3525 9.59126 33.375 9.63346C33.4119 9.69834 33.4328 9.76669 33.4588 9.83503C33.4716 9.87219 33.4941 9.9062 33.5037 9.94526C33.5334 10.0558 33.5488 10.1701 33.5491 10.2848V43.6667L46.4509 36.1796V19.1145C46.4509 19.0011 46.4672 18.8855 46.4962 18.7768C46.5075 18.7378 46.5284 18.7038 46.5413 18.6666C46.5672 18.5983 46.5897 18.528 46.625 18.4651C46.6491 18.4229 46.6844 18.3888 46.7122 18.3498C46.7506 18.2978 46.7828 18.2443 46.8278 18.1986C46.8653 18.1615 46.9119 18.1337 46.9538 18.1013C47.0022 18.0622 47.0441 18.02 47.0956 17.9892H47.0972L62.5819 9.00516C62.7779 8.89129 63.0002 8.83135 63.2264 8.83135C63.4527 8.83135 63.6749 8.89129 63.8709 9.00516L79.3541 17.9892C79.4088 18.0216 79.4506 18.0622 79.4991 18.0994C79.5391 18.1322 79.5859 18.1615 79.6231 18.197C79.6681 18.2443 79.7003 18.2978 79.7388 18.3498C79.7681 18.3888 79.8034 18.4229 79.8262 18.4651C79.8631 18.528 79.8841 18.5983 79.9097 18.6666C79.9244 18.7038 79.9453 18.7378 79.955 18.7768ZM77.4191 36.1799V21.365L72.0006 24.5085L64.5153 28.8521V43.667L77.4206 36.1799H77.4191ZM61.9359 62.9798V48.1546L54.5728 52.3928L33.5475 64.4865V79.4507L61.9359 62.9792V62.9798ZM2.58094 12.5334V62.9798L30.9663 79.4494V64.4881L16.1375 56.03L16.1328 56.0269L16.1266 56.0237C16.0766 55.9944 16.0344 55.9522 15.9878 55.9166C15.9472 55.8839 15.9006 55.8581 15.8653 55.8222L15.8622 55.8174C15.8203 55.7768 15.7912 55.7264 15.7559 55.6811C15.7234 55.637 15.685 55.5998 15.6591 55.5545L15.6575 55.5494C15.6284 55.5009 15.6106 55.4423 15.5897 55.3872C15.5688 55.3384 15.5416 55.2927 15.5284 55.2411V55.2395C15.5125 55.1778 15.5094 55.1126 15.5028 55.0493C15.4966 55.0008 15.4834 54.952 15.4834 54.9032V20.0209L7.99937 15.6753L2.58094 12.5353V12.5334ZM16.7753 2.80081L3.87469 10.2848L16.7722 17.7684L29.6709 10.2829L16.7722 2.80081H16.7753ZM23.4841 49.506L30.9678 45.1642V12.5334L25.55 15.6772L18.0641 20.0206V52.651L23.4841 49.506ZM63.2262 11.6324L50.3275 19.116L63.2262 26.6L76.1234 19.1145L63.2266 11.6324H63.2262ZM61.9356 28.8521L54.4503 24.5085L49.0322 21.365V36.1799L56.5159 40.522L61.9359 43.667V28.8521H61.9356ZM32.2553 62.2378L51.175 51.3522L60.6325 45.9125L47.7431 38.4336L32.9028 47.0441L19.3772 54.8918L32.2553 62.2378Z" fill="#FF2D20"/>
</svg>
