<svg width="80" height="80" viewBox="0 0 80 80" fill="none" xmlns="http://www.w3.org/2000/svg">
<path d="M63.1648 38.2648C63.1648 34.0248 61.6398 31.0898 60.3348 28.8048L59.9349 28.1548C58.3498 25.6048 56.9648 23.3648 56.9648 20.7548C56.9648 17.6048 59.3548 14.6648 62.7248 14.6648C62.8248 14.6648 62.9198 14.6748 63.0148 14.6798L63.1698 14.6948C56.8507 8.89048 48.5801 5.67435 39.9998 5.68478C34.3132 5.68186 28.7151 7.09389 23.7102 9.79363C18.7052 12.4934 14.4507 16.396 11.3298 21.1498C12.1298 21.1748 12.8948 21.1948 13.5398 21.1948C17.1248 21.1948 22.6798 20.7598 22.6798 20.7598C24.5298 20.6498 24.7498 23.3648 22.8998 23.5848C22.8998 23.5848 21.0448 23.8048 18.9748 23.9098L31.4748 61.0798L38.9748 38.5498L33.6248 23.9048C31.7798 23.7948 30.0298 23.5798 30.0298 23.5798C28.1798 23.4698 28.3998 20.6398 30.2448 20.7498C30.2448 20.7498 35.9148 21.1848 39.2848 21.1848C42.8748 21.1848 48.4348 20.7498 48.4348 20.7498C50.2848 20.6398 50.4998 23.3598 48.6498 23.5798C48.6498 23.5798 46.7898 23.7948 44.7248 23.9048L57.1248 60.7898L60.5448 49.3548L60.8148 48.4898C62.1648 44.1898 63.1598 41.0148 63.1598 38.2598L63.1648 38.2648ZM5.68484 39.9998C5.6845 46.4435 7.49824 52.7572 10.9185 58.2182C14.3387 63.6793 19.2273 68.0672 25.0248 70.8798L8.64984 26.0298C6.689 30.4258 5.67862 35.1863 5.68484 39.9998V39.9998Z" fill="white"/>
<path d="M30.3052 72.9152L40.6052 43.0002L51.1502 71.9002C51.2202 72.0652 51.3002 72.2202 51.3952 72.3702C44.5974 74.765 37.2176 74.9557 30.3052 72.9152V72.9152ZM70.1052 23.5352C70.2552 24.6302 70.3402 25.8002 70.3402 27.0652C70.3402 30.5452 69.6902 34.4602 67.7302 39.3552L57.2502 69.6552C64.9837 65.1619 70.6563 57.8256 73.0586 49.2102C75.4609 40.5948 74.4029 31.3818 70.1102 23.5352H70.1052Z" fill="white"/>
<path fill-rule="evenodd" clip-rule="evenodd" d="M0 40C0 17.945 17.945 0 40 0C62.05 0 80 17.945 80 40C80 62.055 62.05 80 40 80C17.945 80 0 62.055 0 40ZM1.835 40C1.835 61.045 18.955 78.165 40 78.165C61.04 78.165 78.16 61.045 78.16 40C78.16 18.95 61.04 1.835 40 1.835C18.95 1.835 1.835 18.95 1.835 40Z" fill="white"/>
</svg>
