<svg width="87" height="85" viewBox="0 0 87 85" fill="none" xmlns="http://www.w3.org/2000/svg">
<path d="M38.1712 37.8867C37.8088 36.7607 37.4825 35.6709 37.12 34.5449C36.7575 33.4188 36.4313 32.3654 36.1413 31.312C35.8512 30.2949 35.5975 29.3504 35.3438 28.4786H35.2712C34.945 30.0406 34.5462 31.6026 34.0387 33.1645C33.495 34.9081 32.9513 36.7244 32.3713 38.5406C31.8638 40.3932 31.32 42.1004 30.7762 43.6261H39.9837C39.7663 42.8596 39.4762 41.9551 39.15 41.007C38.8237 40.0299 38.4975 38.9765 38.1712 37.8867ZM71.5938 0H15.4062C6.8875 0 0 6.90171 0 15.438V69.562C0 78.0983 6.8875 85 15.4062 85H71.5938C80.1125 85 87 78.0983 87 69.562V15.438C87 6.90171 80.1125 0 71.5938 0ZM53.2875 60.0449H45.7076C45.4575 60.0812 45.2038 59.8996 45.1312 59.6453L42.1587 51H28.6737L25.9188 59.5363C25.8463 59.8633 25.5562 60.0812 25.23 60.0485H18.415C18.0163 60.0485 17.9075 59.8269 18.0162 59.3947L29.6887 25.7179C29.7975 25.3547 29.9062 24.9551 30.0513 24.5192C30.1962 23.7564 30.2688 22.9573 30.2688 22.1581C30.2325 21.9765 30.3775 21.7949 30.5588 21.7585H39.9475C40.2375 21.7585 40.3825 21.8675 40.4187 22.0491L53.65 59.4637C53.7588 59.8596 53.65 60.0449 53.2875 60.0449ZM65.6125 59.5C65.6125 59.8996 65.4711 60.0812 65.1449 60.0812H58.0363C57.6738 60.0812 57.4925 59.8596 57.4925 59.5V31.5299C57.4925 31.1667 57.6411 31.0214 57.9674 31.0214H65.1449C65.4711 31.0214 65.6125 31.203 65.6125 31.5299V59.5ZM64.8549 26.6987C64.4268 27.1344 63.9106 27.4733 63.341 27.6925C62.7714 27.9118 62.1616 28.0065 61.5525 27.9701C60.3562 28.0064 59.1963 27.5342 58.3226 26.6987C57.4921 25.7887 57.0498 24.5893 57.0901 23.3568C57.0539 22.1218 57.5251 20.9594 58.3915 20.1239C59.2687 19.2885 60.4287 18.8526 61.625 18.8526C63.0424 18.8526 64.1226 19.2885 64.9238 20.1239C65.7213 20.9957 66.1562 22.1581 66.12 23.3568C66.1562 24.5919 65.7213 25.7906 64.8549 26.6987Z" fill="#F1662A"/>
</svg>
