<svg width="82" height="93" viewBox="0 0 82 93" fill="none" xmlns="http://www.w3.org/2000/svg">
<path d="M7.45998 83.7039L0 0H82L74.5301 83.6906L40.9502 93.0006L7.45998 83.7039Z" fill="#1572B6"/>
<path d="M41 85.8863L68.1362 78.3632L74.5201 6.8457H41V85.8863Z" fill="#33A9DC"/>
<path d="M41 37.1704H54.5847L55.5214 26.658H41V16.3914H66.7412L66.4954 19.1448L63.9744 47.437H41V37.1704Z" fill="white"/>
<path d="M41.0631 63.8321L41.0166 63.8454L29.5841 60.7565L28.8534 52.5691H18.5469L19.9851 68.6881L41.0132 74.5272L41.0631 74.5139V63.8321Z" fill="#EBEBEB"/>
<path d="M53.7114 47.0012L52.4758 60.7487L41.0267 63.8377V74.5195L62.0715 68.687L62.2276 66.9532L64.0112 47.0012H53.7114Z" fill="white"/>
<path d="M41.0367 16.3914V26.658H16.2388L16.0328 24.3496L15.5645 19.1448L15.3187 16.3914H41.0367Z" fill="#EBEBEB"/>
<path d="M40.9998 37.1699V47.4365H29.7102L29.5043 45.1281L29.0393 39.9234L28.7935 37.1699H40.9998Z" fill="#EBEBEB"/>
</svg>
