<svg width="23" height="18" viewBox="0 0 23 18" fill="none" xmlns="http://www.w3.org/2000/svg">
<path d="M21.85 0.00757131C21.752 -0.00252377 21.6533 -0.00252377 21.5553 0.00757131H1.43028C1.3013 0.00955875 1.17317 0.028899 1.04935 0.0650712L11.4353 10.4079L21.85 0.00757131Z" fill="white"/>
<path d="M22.9138 1.00665L12.4487 11.4285C12.1794 11.6963 11.8151 11.8465 11.4353 11.8465C11.0555 11.8465 10.6912 11.6963 10.4219 11.4285L0.0503125 1.08572C0.0184283 1.2029 0.00152281 1.32365 0 1.44509V15.8201C0 16.2013 0.15145 16.567 0.421034 16.8366C0.690618 17.1061 1.05625 17.2576 1.4375 17.2576H21.5625C21.9437 17.2576 22.3094 17.1061 22.579 16.8366C22.8486 16.567 23 16.2013 23 15.8201V1.44509C22.9943 1.29534 22.9652 1.14741 22.9138 1.00665ZM2.42219 15.8201H1.42313V14.7923L6.64844 9.61009L7.66187 10.6235L2.42219 15.8201ZM21.5481 15.8201H20.5419L15.3022 10.6235L16.3156 9.61009L21.5409 14.7923L21.5481 15.8201Z" fill="white"/>
</svg>
