<svg width="23" height="18" viewBox="0 0 23 18" fill="none" xmlns="http://www.w3.org/2000/svg">
<path d="M21.85 0.00757131C21.752 -0.00252377 21.6533 -0.00252377 21.5553 0.00757131H1.43028C1.3013 0.00955875 1.17317 0.028899 1.04935 0.0650712L11.4353 10.4079L21.85 0.00757131Z" fill="#E4E4E4"/>
<path d="M22.9138 1.00659L12.4487 11.4285C12.1794 11.6962 11.8151 11.8465 11.4353 11.8465C11.0555 11.8465 10.6912 11.6962 10.4219 11.4285L0.0503125 1.08565C0.0184283 1.20284 0.00152281 1.32359 0 1.44503V15.82C0 16.2013 0.15145 16.5669 0.421034 16.8365C0.690618 17.1061 1.05625 17.2575 1.4375 17.2575H21.5625C21.9437 17.2575 22.3094 17.1061 22.579 16.8365C22.8486 16.5669 23 16.2013 23 15.82V1.44503C22.9943 1.29528 22.9652 1.14735 22.9138 1.00659ZM2.42219 15.82H1.42313V14.7922L6.64844 9.61003L7.66187 10.6235L2.42219 15.82ZM21.5481 15.82H20.5419L15.3022 10.6235L16.3156 9.61003L21.5409 14.7922L21.5481 15.82Z" fill="#E4E4E4"/>
</svg>
