<svg width="74" height="84" viewBox="0 0 74 84" fill="none" xmlns="http://www.w3.org/2000/svg">
<path d="M6.73463 75.5316L0 0H74L67.2564 75.5196L36.955 83.9206L6.73463 75.5316Z" fill="#E44F26"/>
<path d="M36.9999 77.501L61.4868 70.7124L67.2473 6.17749H36.9999V77.501Z" fill="#F1662A"/>
<path d="M36.9999 34.1883H24.7415L23.8963 24.7022H36.9999V15.438H13.7719L13.9937 17.9256L16.2685 43.4525H36.9999V34.1883Z" fill="#EBEBEB"/>
<path d="M36.9998 58.2468L36.9578 58.2588L26.6416 55.4744L25.9822 48.0864H16.682L17.9798 62.6287L36.9578 67.8977L36.9998 67.8857V58.2468Z" fill="#EBEBEB"/>
<path d="M36.967 34.1895V43.4537H48.3742L47.3012 55.4693L36.967 58.2567V67.8956L55.96 62.6296L56.0979 61.065L58.2738 36.6771L58.5016 34.1895H36.967Z" fill="white"/>
<path d="M36.967 15.438V24.7022H59.3438L59.5296 22.6222L59.9522 17.9256L60.174 15.438H36.967Z" fill="white"/>
</svg>
