<svg width="100" height="89" viewBox="0 0 100 89" fill="none" xmlns="http://www.w3.org/2000/svg">
<circle cx="66.3194" cy="33.6806" r="33.6806" fill="#66B9AA" fill-opacity="0.37"/>
<path d="M36.5602 52.8686C43.1852 52.8686 48.338 47.4704 48.338 40.8454C48.338 34.2204 42.9398 29.0676 36.3148 29.0676C29.6898 29.0676 24.537 34.4658 24.537 40.8454C24.537 47.4704 29.9352 52.8686 36.5602 52.8686ZM36.3148 33.975C36.5602 33.975 36.5602 33.975 36.3148 33.975C40.2407 33.975 43.4306 37.1649 43.4306 41.0908C43.4306 45.0167 40.2407 47.9611 36.3148 47.9611C32.3889 47.9611 29.4445 44.7713 29.4445 41.0908C29.4445 37.1649 32.6343 33.975 36.3148 33.975Z" fill="white"/>
<path d="M72.875 51.3959C68.213 47.2246 62.0787 45.0163 55.6991 45.2616H53.7361C53.2454 47.2246 52.5093 48.9422 51.5278 50.4144C53 50.169 54.2269 50.169 55.6991 50.169C60.3611 49.9237 65.0232 51.3959 68.7037 54.095V71.7616H73.6111V52.132L72.875 51.3959Z" fill="white"/>
<path d="M50.0555 29.5579C51.2824 26.6135 54.7176 25.1413 57.9074 26.3681C60.8518 27.595 62.3241 31.0302 61.0972 34.22C60.1157 36.4283 57.9074 37.9005 55.6991 37.9005C55.2083 37.9005 54.4722 37.9005 53.9815 37.6552C54.2268 38.882 54.2268 40.1089 54.2268 41.0903V42.5626C54.7176 42.5626 55.2083 42.8079 55.6991 42.8079C61.8333 42.8079 66.7407 37.9005 66.7407 32.0116C66.7407 25.8774 61.8333 20.97 55.9444 20.97C52.0185 20.97 48.5833 22.9329 46.6204 26.3681C47.8472 27.1042 49.0741 28.0857 50.0555 29.5579Z" fill="white"/>
<path d="M22.0833 50.6603C21.1019 49.1881 20.3657 47.4705 19.875 45.5075H17.912C11.5324 45.2621 5.39815 47.4705 0.736111 51.3964L0 52.1325V71.7621H4.90741V54.0955C8.83333 51.3964 13.25 49.9242 17.912 50.1695C19.3843 50.1695 20.8565 50.4149 22.0833 50.6603Z" fill="white"/>
<path d="M17.9121 42.5633C18.4028 42.5633 18.8935 42.5633 19.3843 42.3179V40.8457C19.3843 39.6189 19.3843 38.392 19.6297 37.4105C19.1389 37.6559 18.4028 37.6559 17.9121 37.6559C14.7223 37.6559 12.0232 34.9568 12.0232 31.767C12.0232 28.5772 14.7223 25.8781 17.9121 25.8781C20.3658 25.8781 22.5741 27.3503 23.5556 29.5587C24.5371 28.3318 26.0093 27.105 27.2361 26.1235C24.0463 20.9707 17.4213 19.2531 12.2685 22.4429C7.11577 25.6327 5.39818 32.2577 8.58799 37.4105C10.551 40.6003 13.9861 42.5633 17.9121 42.5633Z" fill="white"/>
<path d="M56.6806 66.1185L56.1898 65.3824C51.2824 59.9843 44.412 56.7944 37.0509 57.0398C29.6898 56.7944 22.5741 59.9843 17.6667 65.3824L17.1759 66.1185V84.7667C17.1759 86.975 18.8935 88.938 21.3472 88.938H52.7546C54.963 88.938 56.9259 86.975 56.9259 84.7667V66.1185H56.6806ZM51.7732 84.0306H22.0833V67.8361C26.0093 63.9102 31.4074 61.9472 37.0509 61.9472C42.4491 61.7018 47.8472 63.9102 51.7732 67.8361V84.0306Z" fill="white"/>
</svg>
