<svg width="100" height="100" viewBox="0 0 100 100" fill="none" xmlns="http://www.w3.org/2000/svg">
<ellipse cx="66.3194" cy="37.8697" rx="33.6806" ry="37.8697" fill="#66B9AA" fill-opacity="0.37"/>
<path d="M36.5602 59.4444C43.1852 59.4444 48.338 53.3748 48.338 45.9258C48.338 38.4768 42.9398 32.6831 36.3148 32.6831C29.6898 32.6831 24.537 38.7527 24.537 45.9258C24.537 53.3748 29.9352 59.4444 36.5602 59.4444ZM36.3148 38.2009C36.5602 38.2009 36.5602 38.2009 36.3148 38.2009C40.2407 38.2009 43.4306 41.7875 43.4306 46.2017C43.4306 50.6159 40.2407 53.9266 36.3148 53.9266C32.3889 53.9266 29.4445 50.34 29.4445 46.2017C29.4445 41.7875 32.6343 38.2009 36.3148 38.2009V38.2009Z" fill="white"/>
<path d="M72.875 57.7884C68.213 53.0982 62.0787 50.6152 55.6991 50.8911H53.7361C53.2454 53.0982 52.5093 55.0295 51.5278 56.6848C53 56.4089 54.2269 56.4089 55.6991 56.4089C60.3611 56.133 65.0232 57.7884 68.7037 60.8231V80.6872H73.6111V58.616L72.875 57.7884Z" fill="white"/>
<path d="M50.0555 33.2342C51.2824 29.9236 54.7176 28.2682 57.9074 29.6477C60.8518 31.0271 62.3241 34.8896 61.0972 38.4761C60.1157 40.9591 57.9074 42.6145 55.6991 42.6145C55.2083 42.6145 54.4722 42.6145 53.9815 42.3386C54.2268 43.718 54.2268 45.0975 54.2268 46.201V47.8564C54.7176 47.8564 55.2083 48.1323 55.6991 48.1323C61.8333 48.1323 66.7407 42.6145 66.7407 35.9931C66.7407 29.0959 61.8333 23.5781 55.9444 23.5781C52.0185 23.5781 48.5833 25.7852 46.6204 29.6477C47.8472 30.4754 49.0741 31.5789 50.0555 33.2342V33.2342Z" fill="white"/>
<path d="M22.0833 56.9614C21.1019 55.3061 20.3657 53.3749 19.875 51.1678H17.912C11.5324 50.8919 5.39815 53.3749 0.736111 57.7891L0 58.6168V80.6879H4.90741V60.8239C8.83333 57.7891 13.25 56.1338 17.912 56.4097C19.3843 56.4097 20.8565 56.6856 22.0833 56.9614Z" fill="white"/>
<path d="M17.9121 47.8574C18.4028 47.8574 18.8935 47.8574 19.3843 47.5815V45.9261C19.3843 44.5467 19.3843 43.1672 19.6297 42.0637C19.1389 42.3396 18.4028 42.3396 17.9121 42.3396C14.7223 42.3396 12.0232 39.3048 12.0232 35.7182C12.0232 32.1317 14.7223 29.0969 17.9121 29.0969C20.3658 29.0969 22.5741 30.7522 23.5556 33.2352C24.5371 31.8558 26.0093 30.4763 27.2361 29.3728C24.0463 23.5791 17.4213 21.6479 12.2685 25.2344C7.11577 28.821 5.39818 36.27 8.58799 42.0637C10.551 45.6502 13.9861 47.8574 17.9121 47.8574V47.8574Z" fill="white"/>
<path d="M56.6806 74.3421L56.1898 73.5145C51.2824 67.4449 44.412 63.8583 37.0509 64.1342C29.6898 63.8583 22.5741 67.4449 17.6667 73.5145L17.1759 74.3421V95.3097C17.1759 97.7927 18.8935 99.9998 21.3472 99.9998H52.7546C54.963 99.9998 56.9259 97.7927 56.9259 95.3097V74.3421H56.6806ZM51.7732 94.482H22.0833V76.2734C26.0093 71.8591 31.4074 69.652 37.0509 69.652C42.4491 69.3761 47.8472 71.8591 51.7732 76.2734V94.482Z" fill="white"/>
</svg>
