<svg width="94" height="100" viewBox="0 0 94 100" fill="none" xmlns="http://www.w3.org/2000/svg">
<path d="M73.7378 35.7584C72.4586 34.7811 70.8928 34.2523 69.2826 34.2539C59.5628 34.2539 57.8201 46.9068 55.6633 51.8461C55.6633 51.8461 45.6967 30.993 42.2302 24.1125C38.6558 17.015 31.0254 18.4817 28.7904 22.3452C23.4813 16.8465 13.45 21.2856 14.7287 27.9706C7.84419 27.4422 5.06153 34.2297 6.58977 38.5812C1.26859 38.4167 -1.21868 44.9939 0.580677 49.7027C0.673747 49.948 10.121 68.5296 12.665 74.8601C12.9603 75.5948 13.2584 76.3807 13.5714 77.2084C15.6284 82.6438 18.4461 90.0878 25.4951 96.0664C28.53 98.6398 32.7317 100 37.6496 100C46.3172 100 55.9682 95.7011 62.2376 89.0457C67.8528 83.086 70.5438 75.7701 70.0204 67.888C69.551 60.8026 71.8063 54.127 73.6178 48.7617C75.583 42.9395 77.1342 38.3399 73.7378 35.7584ZM65.7162 67.6534C66.8129 83.3286 51.0921 96.5544 37.7548 96.5544C33.6799 96.5544 29.4594 95.8965 26.8224 93.6601C19.2608 87.2461 17.363 79.3087 15.1711 73.8652C12.553 67.3528 6.12711 54.8388 3.01264 48.5433C1.73798 45.9659 3.8678 40.4806 7.57712 40.4806L18.2748 63.2196L22.3281 65.6515C22.3281 65.6515 13.0453 45.4334 10.1062 38.4653C8.39047 34.3968 11.3471 29.4845 15.3316 30.1248L28.6123 58.4556L32.6669 60.8929L17.1876 28.2254C17.1256 22.4355 25.0527 22.3452 26.8952 25.7261C31.5582 34.2836 40.3122 53.0634 40.3122 53.0634L44.3641 55.4993L29.833 24.7056C32.671 20.9931 37.6779 21.5134 39.836 26.02C42.4285 31.4324 53.4067 54.9412 53.4067 54.9412C42.5688 59.0016 35.1704 70.7715 42.9168 82.3742C36.7701 69.689 47.6593 60.7244 54.0919 57.7614C56.5266 56.6384 57.4222 54.5152 57.4222 54.5152L57.4168 54.5166C58.2652 52.9811 58.2153 50.9281 59.227 47.6051C61.4188 40.4132 64.4254 36.6022 68.8375 36.6022C69.8545 36.6022 71.1359 37.3626 71.724 38.2294C74.6955 42.6119 64.6965 53.089 65.7162 67.6534Z" fill="white"/>
<circle cx="57.7206" cy="35.6618" r="35.6618" fill="#66B9AA" fill-opacity="0.37"/>
</svg>
