<svg width="100" height="81" viewBox="0 0 100 81" fill="none" xmlns="http://www.w3.org/2000/svg">
<circle cx="67.4497" cy="32.5503" r="32.5503" fill="#66B9AA" fill-opacity="0.37"/>
<path d="M40.0389 61.3945C36.2429 58.3548 30.0877 58.3548 26.2916 61.3945C22.4994 64.4355 22.4994 69.3635 26.2916 72.4044C30.0864 75.4454 36.2416 75.4454 40.0389 72.4044C43.8324 69.3635 43.8324 64.4355 40.0389 61.3945Z" fill="white"/>
<path d="M25.4517 57.0094C28.3936 53.3548 27.3979 48.7381 23.2301 46.7005C19.061 44.6642 13.2994 45.975 10.3575 49.6295C7.41947 53.2841 8.41254 57.9008 12.5791 59.9384C16.7494 61.9773 22.5123 60.6652 25.4517 57.0094Z" fill="white"/>
<path d="M21.4599 39.5763C24.2757 36.4299 23.5952 32.2273 19.9381 30.1898C16.2823 28.1509 11.0378 29.0487 8.22066 32.1952C5.40354 35.3416 6.08531 39.5429 9.74114 41.5805C13.397 43.6193 18.644 42.7215 21.4599 39.5763Z" fill="white"/>
<path d="M24.0547 28.3715C27.5511 30.4065 32.6335 29.6321 35.4043 26.6465C38.1764 23.6596 37.5911 19.5908 34.0961 17.5571C30.601 15.5221 25.5186 16.2952 22.7478 19.2808C19.9744 22.2677 20.5597 26.3365 24.0547 28.3715Z" fill="white"/>
<path d="M53.5715 23.1794C56.6845 21.5881 57.0305 18.4623 54.3433 16.1944C51.6587 13.9266 46.9519 13.3773 43.8376 14.9672C40.7221 16.5572 40.3773 19.6843 43.0645 21.9522C45.7518 24.22 50.4585 24.7693 53.5715 23.1794Z" fill="white"/>
<path d="M64.9286 46.2406C62.145 45.4225 59.7433 44.715 59.0834 43.0774C58.7014 42.1281 58.8506 40.7337 59.4989 38.9341C66.4015 32.4765 76.7284 22.0712 76.4377 17.8429C76.3219 16.1526 73.6283 13.7317 71.8621 13.7317L71.7232 13.7369C69.8117 13.8681 66.8903 16.397 63.7696 19.8213C63.5079 19.0359 63.1714 18.2773 62.765 17.5561C59.4912 11.9154 52.294 8.68018 43.0206 8.68018C35.8106 8.68018 27.7824 10.6676 19.8083 14.4276C9.57273 19.2541 1.9279 29.3185 0.332811 40.0699C-0.853212 48.0531 0.564356 60.1268 14.0428 72.3254C20.0193 77.7371 29.4303 80.7163 40.538 80.7163H40.5418C49.4589 80.7163 58.493 78.7315 65.3313 75.275C72.9735 71.4095 77.1812 66.0634 77.1812 60.2195C77.1812 49.8437 70.0985 47.7611 64.9286 46.2406ZM71.8621 15.6612C72.6738 15.6612 74.4696 17.3464 74.512 17.9741C74.7577 21.5541 62.0047 34.2427 53.48 41.8091L52.0264 40.5446L51.0758 39.7149C57.4202 30.2498 68.2693 15.9057 71.8621 15.6612ZM47.9371 43.4891L49.895 41.2444L52.1216 43.1868L50.1677 45.4302L47.9371 43.4891ZM64.171 72.9776C57.68 76.2604 49.0691 78.1436 40.5418 78.1436H40.5393C30.0683 78.1436 21.2722 75.3998 15.7691 70.4177C3.13193 58.9833 1.78254 47.8087 2.87466 40.4468C4.34883 30.5238 11.4264 21.2248 20.9081 16.7547C28.5401 13.1554 36.1875 11.2529 43.0206 11.2529C51.2315 11.2529 57.779 14.0919 60.5383 18.8476C61.1326 19.8702 61.5314 20.9636 61.7629 22.1085C56.0026 28.9043 50.1522 37.613 49.0344 39.293L45.4622 43.3887C43.5866 43.3694 41.7086 44.1888 41.1297 46.1686C38.9969 53.4429 34.2464 57.9542 34.2464 57.9542C34.2464 57.9542 46.288 55.5744 48.5919 52.8705C49.8396 51.4066 50.4442 49.6572 50.4301 48.0621L54.1708 43.7733C54.6699 43.3347 55.4121 42.6748 56.3267 41.849C56.3216 42.6516 56.4322 43.3849 56.6946 44.0383C57.8202 46.8323 60.9191 47.7431 64.2006 48.7078C69.3164 50.2129 74.6072 51.7681 74.6072 60.2195C74.6085 65.0433 70.8999 69.5739 64.171 72.9776Z" fill="white"/>
<path d="M67.0461 54.7414C63.2513 51.7018 57.0948 51.7018 53.3 54.7414C49.5053 57.7811 49.5066 62.7104 53.3 65.7514C57.0935 68.7923 63.25 68.791 67.0461 65.7514C70.8421 62.7117 70.8408 57.7811 67.0461 54.7414ZM65.177 64.2528C62.4152 66.4666 57.9309 66.4666 55.1704 64.2528C52.4086 62.0389 52.4086 58.4513 55.1704 56.2387C57.9309 54.0249 62.4152 54.0249 65.177 56.2387C67.9388 58.4526 67.9388 62.0389 65.177 64.2528Z" fill="white"/>
</svg>
