<svg width="111" height="100" viewBox="0 0 111 100" fill="none" xmlns="http://www.w3.org/2000/svg">
<circle cx="74.6618" cy="35.6618" r="35.6618" fill="#66B9AA" fill-opacity="0.37"/>
<path d="M40.0389 76.0622C36.2429 72.2963 30.0877 72.2963 26.2916 76.0622C22.4994 79.8297 22.4994 85.935 26.2916 89.7025C30.0864 93.47 36.2416 93.47 40.0389 89.7025C43.8324 85.935 43.8324 79.8297 40.0389 76.0622Z" fill="white"/>
<path d="M25.4517 70.6294C28.3936 66.1018 27.3979 60.3821 23.2301 57.8577C19.061 55.3349 13.2994 56.9588 10.3575 61.4865C7.41947 66.0141 8.41254 71.7339 12.5791 74.2583C16.7494 76.7842 22.5123 75.1587 25.4517 70.6294Z" fill="white"/>
<path d="M21.4599 49.0315C24.2757 45.1333 23.5952 39.9268 19.9381 37.4024C16.2823 34.8764 11.0378 35.9888 8.22066 39.8869C5.40354 43.7851 6.08531 48.99 9.74114 51.5144C13.397 54.0404 18.644 52.928 21.4599 49.0315Z" fill="white"/>
<path d="M24.0547 35.1497C27.5511 37.6709 32.6335 36.7115 35.4043 33.0126C38.1764 29.312 37.5911 24.2712 34.0961 21.7516C30.601 19.2304 25.5186 20.1882 22.7478 23.8871C19.9744 27.5877 20.5597 32.6285 24.0547 35.1497Z" fill="white"/>
<path d="M53.5715 28.7172C56.6845 26.7458 57.0305 22.8731 54.3433 20.0635C51.6587 17.2538 46.9519 16.5733 43.8376 18.5431C40.7221 20.5129 40.3773 24.3871 43.0645 27.1968C45.7518 30.0064 50.4585 30.6869 53.5715 28.7172Z" fill="white"/>
<path d="M64.9286 57.2878C62.145 56.2742 59.7433 55.3977 59.0834 53.3689C58.7014 52.1928 58.8506 50.4653 59.4989 48.2357C66.4015 40.2354 76.7284 27.3441 76.4377 22.1057C76.3219 20.0116 73.6283 17.0123 71.8621 17.0123L71.7232 17.0187C69.8117 17.1812 66.8903 20.3144 63.7696 24.5568C63.5079 23.5837 63.1714 22.6439 62.765 21.7503C59.4912 14.762 52.294 10.7539 43.0206 10.7539C35.8106 10.7539 27.7824 13.2161 19.8083 17.8745C9.57273 23.854 1.9279 36.3229 0.332811 49.6429C-0.853212 59.5333 0.564356 74.4916 14.0428 89.6045C20.0193 96.3091 29.4303 100 40.538 100H40.5418C49.4589 100 58.493 97.541 65.3313 93.2588C72.9735 88.4698 77.1812 81.8464 77.1812 74.6063C77.1812 61.7517 70.0985 59.1715 64.9286 57.2878ZM71.8621 19.4028C72.6738 19.4028 74.4696 21.4905 74.512 22.2683C74.7577 26.7035 62.0047 42.4235 53.48 51.7976L52.0264 50.231L51.0758 49.2031C57.4202 37.4768 68.2693 19.7056 71.8621 19.4028ZM47.9371 53.8789L49.895 51.0979L52.1216 53.5044L50.1677 56.2838L47.9371 53.8789ZM64.171 90.4125C57.68 94.4796 49.0691 96.8127 40.5418 96.8127H40.5393C30.0683 96.8127 21.2722 93.4134 15.7691 87.2411C3.13193 73.0748 1.78254 59.2305 2.87466 50.1099C4.34883 37.8162 11.4264 26.2955 20.9081 20.7574C28.5401 16.2983 36.1875 13.9413 43.0206 13.9413C51.2315 13.9413 57.779 17.4585 60.5383 23.3504C61.1326 24.6173 61.5314 25.972 61.7629 27.3903C56.0026 35.8098 50.1522 46.599 49.0344 48.6803L45.4622 53.7546C43.5866 53.7307 41.7086 54.7459 41.1297 57.1986C38.9969 66.2108 34.2464 71.7999 34.2464 71.7999C34.2464 71.7999 46.288 68.8516 48.5919 65.5016C49.8396 63.688 50.4442 61.5206 50.4301 59.5445L54.1708 54.2311C54.6699 53.6877 55.4121 52.8701 56.3267 51.847C56.3216 52.8414 56.4322 53.7498 56.6946 54.5594C57.8202 58.0209 60.9191 59.1492 64.2006 60.3445C69.3164 62.2091 74.6072 64.1359 74.6072 74.6063C74.6085 80.5826 70.8999 86.1956 64.171 90.4125Z" fill="white"/>
<path d="M67.0461 67.8195C63.2513 64.0536 57.0948 64.0536 53.3 67.8195C49.5053 71.5854 49.5066 77.6924 53.3 81.4598C57.0935 85.2273 63.25 85.2257 67.0461 81.4598C70.8421 77.694 70.8408 71.5854 67.0461 67.8195ZM65.177 79.6032C62.4152 82.3459 57.9309 82.3459 55.1704 79.6032C52.4086 76.8605 52.4086 72.4157 55.1704 69.6746C57.9309 66.9318 62.4152 66.9318 65.177 69.6746C67.9388 72.4173 67.9388 76.8605 65.177 79.6032Z" fill="white"/>
</svg>
