<svg width="41" height="41" viewBox="0 0 41 41" fill="none" xmlns="http://www.w3.org/2000/svg">
<path fill-rule="evenodd" clip-rule="evenodd" d="M41 20.5C41 31.8218 31.8218 41 20.5 41C9.17816 41 0 31.8218 0 20.5C0 9.17816 9.17816 0 20.5 0C31.8218 0 41 9.17816 41 20.5ZM25.5382 13.1509C26.8144 13.1509 27.8491 14.1856 27.8491 15.4618C27.8491 16.7381 26.8144 17.7727 25.5382 17.7727H21.471C20.4566 17.7727 19.6342 18.5951 19.6342 19.6096C19.6342 20.624 20.4566 21.4464 21.471 21.4464H23.4862C24.7052 21.4464 25.6934 22.4346 25.6934 23.6536C25.6934 24.8726 24.7052 25.8608 23.4862 25.8608H22.6638C20.9906 25.8608 19.6342 27.2172 19.6342 28.8904V31.1829C19.6342 32.7596 18.356 34.0377 16.7793 34.0377C15.2027 34.0377 13.9245 32.7596 13.9245 31.1829V20.1132C13.9245 16.2681 17.0416 13.1509 20.8868 13.1509H25.5382ZM16.6321 12.3774C18.1274 12.3774 19.3396 11.1651 19.3396 9.66981C19.3396 8.17447 18.1274 6.96226 16.6321 6.96226C15.1367 6.96226 13.9245 8.17447 13.9245 9.66981C13.9245 11.1651 15.1367 12.3774 16.6321 12.3774Z" fill="#6081BF"/>
</svg>
