<svg width="7" height="12" viewBox="0 0 7 12" fill="none" xmlns="http://www.w3.org/2000/svg">
<path d="M0.31088 0.31571C0.212332 0.415135 0.134148 0.533234 0.0808034 0.663246C0.0274585 0.793257 0 0.932628 0 1.07338C0 1.21414 0.0274585 1.35351 0.0808034 1.48352C0.134148 1.61353 0.212332 1.73163 0.31088 1.83105L4.43547 6.00094L0.31088 10.1708C0.112115 10.3718 0.000450125 10.6443 0.000450125 10.9285C0.000450125 11.2127 0.112115 11.4852 0.31088 11.6862C0.509645 11.8871 0.779227 12 1.06032 12C1.34142 12 1.611 11.8871 1.80977 11.6862L6.68912 6.75323C6.78767 6.65381 6.86585 6.53571 6.9192 6.4057C6.97254 6.27569 7 6.13632 7 5.99556C7 5.85481 6.97254 5.71544 6.9192 5.58543C6.86585 5.45542 6.78767 5.33732 6.68912 5.23789L1.80977 0.304963C1.40581 -0.103428 0.725466 -0.103428 0.31088 0.31571Z" fill="white"/>
</svg>
