<svg width="16" height="18" viewBox="0 0 16 18" fill="none" xmlns="http://www.w3.org/2000/svg">
<path d="M0 1.05714V16.1726C0.000101265 16.2054 0.00988231 16.2374 0.0281167 16.2647C0.046351 16.2919 0.0722269 16.3132 0.1025 16.3258C0.132772 16.3384 0.166094 16.3418 0.198287 16.3356C0.23048 16.3293 0.26011 16.3137 0.283463 16.2907L8.15389 8.61525L0.283463 0.939061C0.26011 0.916037 0.23048 0.900419 0.198287 0.894168C0.166094 0.887916 0.132772 0.891308 0.1025 0.903918C0.0722269 0.916528 0.046351 0.937795 0.0281167 0.965053C0.00988231 0.99231 0.000101265 1.02434 0 1.05714Z" fill="white"/>
<path d="M11.4539 5.46168L1.58541 0.0247302L1.57926 0.0212686C1.40925 -0.0710395 1.24772 0.158962 1.38695 0.292809L9.12276 7.68977L11.4539 5.46168Z" fill="white"/>
<path d="M1.3877 16.938C1.24769 17.0719 1.40923 17.3019 1.58 17.2096L1.58616 17.2061L11.4539 11.7691L9.12274 9.54028L1.3877 16.938Z" fill="white"/>
<path d="M15.4378 7.65393L12.682 6.13623L10.0908 8.61547L12.682 11.0936L15.4378 9.57702C16.1874 9.16278 16.1874 8.06816 15.4378 7.65393Z" fill="white"/>
</svg>
