<svg width="20" height="17" viewBox="0 0 20 17" fill="none" xmlns="http://www.w3.org/2000/svg">
<path d="M3.63636 11.4545C4.18182 11.0909 4.54545 10.5455 4.54545 10C4.54545 9.27273 4.18182 8.72727 3.45455 8.36364V6.18182L10 9.09091L20 4.54545L10 0L0 4.54545L2.18182 5.45455V8.36364C1.45455 8.72727 1.09091 9.27273 1.09091 10C1.09091 10.5455 1.45455 11.0909 2 11.4545L1.09091 14.5455C0.545455 16.3636 2 16.3636 2 16.3636H3.81818C3.81818 16.3636 5.27273 16.3636 4.72727 14.5455L3.63636 11.4545Z" fill="white"/>
<path d="M6.36359 9.45449V9.99994C6.36359 10.7272 5.99996 11.4545 5.63632 11.9999C5.99996 12.7272 6.36359 13.4545 6.36359 14.5454V15.6363C7.27269 15.9999 8.54541 16.3636 9.99996 16.3636C14.5454 16.3636 16.3636 13.6363 16.3636 13.6363V8.18176L9.99996 11.0909L6.36359 9.45449Z" fill="white"/>
</svg>
