<svg width="21" height="21" viewBox="0 0 21 21" fill="none" xmlns="http://www.w3.org/2000/svg">
<path d="M19.4295 4.85613C16.2881 -0.000160531 9.87457 -1.44392 4.90077 1.57485C0.0578702 4.59362 -1.5128 11.1562 1.62854 16.0125L1.89032 16.4062L0.843206 20.3437L4.76989 19.2937L5.16255 19.5562C6.86412 20.475 8.69657 21 10.529 21C12.4924 21 14.4557 20.475 16.1573 19.425C21.0002 16.275 22.4399 9.84366 19.4295 4.85613ZM16.6808 14.9625C16.1573 15.75 15.5028 16.275 14.5866 16.4062C14.063 16.4062 13.4086 16.6687 10.7908 15.6187C8.56568 14.5687 6.73323 12.8624 5.42433 10.8937C4.639 9.97492 4.24633 8.79366 4.11544 7.6124C4.11544 6.56239 4.50811 5.64363 5.16255 4.98738C5.42433 4.72488 5.68611 4.59362 5.94789 4.59362H6.60234C6.86412 4.59362 7.12589 4.59363 7.25678 5.11863C7.51856 5.77488 8.17301 7.3499 8.17301 7.48115C8.3039 7.6124 8.3039 7.8749 8.17301 8.00615C8.3039 8.26865 8.17301 8.53116 8.04212 8.66241C7.91123 8.79366 7.78034 9.05616 7.64945 9.18741C7.38767 9.31866 7.25678 9.58116 7.38767 9.84367C7.91123 10.6312 8.56568 11.4187 9.22012 12.0749C10.0055 12.7312 10.7908 13.2562 11.707 13.6499C11.9688 13.7812 12.2306 13.7812 12.3615 13.5187C12.4924 13.2562 13.1468 12.5999 13.4086 12.3374C13.6704 12.0749 13.8012 12.0749 14.063 12.2062L16.1573 13.2562C16.419 13.3874 16.6808 13.5187 16.8117 13.6499C16.9426 14.0437 16.9426 14.5687 16.6808 14.9625Z" fill="#E4E4E4"/>
</svg>
