<svg width="87" height="99" viewBox="0 0 87 99" fill="none" xmlns="http://www.w3.org/2000/svg">
<circle cx="53.3195" cy="33.6806" r="33.6806" fill="#66B9AA" fill-opacity="0.37"/>
<path d="M26.1724 30C24.9352 30 23.6503 30.4283 22.7462 31.3324C21.8421 32.2366 21.4138 33.5214 21.4138 34.7586V37.1379H0V84.7241H26.6483C26.339 83.2014 26.1724 81.6072 26.1724 79.9655H4.75862V64.3572C6.16241 65.1662 7.78034 65.6897 9.51724 65.6897H30.9548C32.2872 63.8814 33.9052 62.2634 35.7134 60.931H9.51724C6.68586 60.931 4.75862 59.0038 4.75862 56.1724V41.8966H57.1034V56.1724C57.1034 56.5531 57.0797 56.91 57.0083 57.2431C58.7214 57.7666 60.3393 58.4803 61.8621 59.3607V37.1379H40.4483V34.7586C40.4483 33.5214 40.02 32.2366 39.1159 31.3324C38.2117 30.4283 36.9269 30 35.6897 30H26.1724ZM26.1724 34.7586H35.6897V37.1379H26.1724V34.7586ZM14.2759 51.4138V58.5517H19.0345V51.4138H14.2759ZM42.8276 51.4138V57.2669C44.377 56.7827 45.9713 56.4558 47.5862 56.2914V51.4138H42.8276ZM49.9655 60.931C39.4728 60.931 30.931 69.4728 30.931 79.9655C30.931 90.4583 39.4728 99 49.9655 99C60.4583 99 69 90.4583 69 79.9655C69 69.4728 60.4583 60.931 49.9655 60.931ZM49.9655 65.6897C57.8648 65.6897 64.2414 72.0662 64.2414 79.9655C64.2414 87.8648 57.8648 94.2414 49.9655 94.2414C42.0662 94.2414 35.6897 87.8648 35.6897 79.9655C35.6897 72.0662 42.0662 65.6897 49.9655 65.6897ZM47.5862 68.069V82.3448H59.4828V77.5862H52.3448V68.069H47.5862Z" fill="white"/>
</svg>
