<svg width="87" height="100" viewBox="0 0 87 100" fill="none" xmlns="http://www.w3.org/2000/svg">
<circle cx="50.6618" cy="35.6618" r="35.6618" fill="#66B9AA" fill-opacity="0.37"/>
<path d="M26.1724 30.303C24.9352 30.303 23.6503 30.7356 22.7462 31.6489C21.8421 32.5621 21.4138 33.8599 21.4138 35.1097V37.513H0V85.5799H26.6483C26.339 84.0417 26.1724 82.4315 26.1724 80.7732H4.75862V65.0073C6.16241 65.8244 7.78034 66.3531 9.51724 66.3531H30.9548C32.2872 64.5266 33.9052 62.8923 35.7134 61.5464H9.51724C6.68586 61.5464 4.75862 59.5997 4.75862 56.7398V42.3197H57.1034V56.7398C57.1034 57.1243 57.0797 57.4848 57.0083 57.8213C58.7214 58.35 60.3393 59.071 61.8621 59.9602V37.513H40.4483V35.1097C40.4483 33.8599 40.02 32.5621 39.1159 31.6489C38.2117 30.7356 36.9269 30.303 35.6897 30.303H26.1724ZM26.1724 35.1097H35.6897V37.513H26.1724V35.1097ZM14.2759 51.9331V59.1431H19.0345V51.9331H14.2759ZM42.8276 51.9331V57.8453C44.377 57.3562 45.9713 57.0261 47.5862 56.8599V51.9331H42.8276ZM49.9655 61.5464C39.4728 61.5464 30.931 70.1744 30.931 80.7732C30.931 91.3719 39.4728 99.9999 49.9655 99.9999C60.4583 99.9999 69 91.3719 69 80.7732C69 70.1744 60.4583 61.5464 49.9655 61.5464ZM49.9655 66.3531C57.8648 66.3531 64.2414 72.7941 64.2414 80.7732C64.2414 88.7523 57.8648 95.1933 49.9655 95.1933C42.0662 95.1933 35.6897 88.7523 35.6897 80.7732C35.6897 72.7941 42.0662 66.3531 49.9655 66.3531ZM47.5862 68.7565V83.1765H59.4828V78.3699H52.3448V68.7565H47.5862Z" fill="white"/>
</svg>
