<svg width="38" height="37" viewBox="0 0 38 37" fill="none" xmlns="http://www.w3.org/2000/svg">
<g filter="url(#filter0_d_178_1008)">
<path d="M7 10.8182C7 7.60489 9.60489 5 12.8182 5H25.1818C28.3951 5 31 7.60489 31 10.8182V23.1818C31 26.3951 28.3951 29 25.1818 29H12.8182C9.60489 29 7 26.3951 7 23.1818V10.8182Z" fill="white"/>
<path d="M7 10.8182C7 7.60489 9.60489 5 12.8182 5H25.1818C28.3951 5 31 7.60489 31 10.8182V23.1818C31 26.3951 28.3951 29 25.1818 29H12.8182C9.60489 29 7 26.3951 7 23.1818V10.8182Z" fill="#1A2128"/>
</g>
<path fill-rule="evenodd" clip-rule="evenodd" d="M19.0003 17.0002C19.0003 15.7285 20.0312 14.6976 21.3029 14.6976C22.5745 14.6976 23.6054 15.7285 23.6054 17.0002C23.6054 18.2719 22.5745 19.3028 21.3029 19.3028C20.0312 19.3028 19.0003 18.2719 19.0003 17.0002Z" fill="#1ABCFE"/>
<path fill-rule="evenodd" clip-rule="evenodd" d="M14.3951 21.6054C14.3951 20.3338 15.426 19.3029 16.6977 19.3029H19.0003V21.6054C19.0003 22.8771 17.9694 23.908 16.6977 23.908C15.426 23.908 14.3951 22.8771 14.3951 21.6054Z" fill="#0ACF83"/>
<path fill-rule="evenodd" clip-rule="evenodd" d="M19.0003 10.0925V14.6977H21.3029C22.5745 14.6977 23.6054 13.6668 23.6054 12.3951C23.6054 11.1234 22.5745 10.0925 21.3029 10.0925H19.0003Z" fill="#FF7262"/>
<path fill-rule="evenodd" clip-rule="evenodd" d="M14.3951 12.3951C14.3951 13.6668 15.426 14.6977 16.6977 14.6977H19.0003V10.0925H16.6977C15.426 10.0925 14.3951 11.1234 14.3951 12.3951Z" fill="#F24E1E"/>
<path fill-rule="evenodd" clip-rule="evenodd" d="M14.3951 17.0002C14.3951 18.2719 15.426 19.3028 16.6977 19.3028H19.0003V14.6976H16.6977C15.426 14.6976 14.3951 15.7285 14.3951 17.0002Z" fill="#A259FF"/>
<defs>
<filter id="filter0_d_178_1008" x="0.904167" y="0.0125" width="36.1917" height="36.1917" filterUnits="userSpaceOnUse" color-interpolation-filters="sRGB">
<feFlood flood-opacity="0" result="BackgroundImageFix"/>
<feColorMatrix in="SourceAlpha" type="matrix" values="0 0 0 0 0 0 0 0 0 0 0 0 0 0 0 0 0 0 127 0" result="hardAlpha"/>
<feOffset dy="1.10833"/>
<feGaussianBlur stdDeviation="3.04792"/>
<feComposite in2="hardAlpha" operator="out"/>
<feColorMatrix type="matrix" values="0 0 0 0 0.0802604 0 0 0 0 0.150722 0 0 0 0 0.2875 0 0 0 0.15 0"/>
<feBlend mode="normal" in2="BackgroundImageFix" result="effect1_dropShadow_178_1008"/>
<feBlend mode="normal" in="SourceGraphic" in2="effect1_dropShadow_178_1008" result="shape"/>
</filter>
</defs>
</svg>
